<svg width="60" height="60" viewBox="0 0 60 60" fill="none" xmlns="http://www.w3.org/2000/svg">
<path d="M43.274 23.369C48.092 33.728 40.8 46.265 28.152 45.031C20.016 44.235 12.574 35.491 15.875 25.556C16.082 24.928 16.524 24.24 16.862 23.579" stroke="white" stroke-width="1.5" stroke-miterlimit="10" stroke-linecap="round" stroke-linejoin="round"/>
<path d="M1.19702 19.646V48.983C1.74602 54.311 5.93602 58.496 11.359 59H30.127H48.898C54.329 58.442 58.378 53.923 58.918 49.121C58.918 49.121 58.918 24.376 58.918 19.646" stroke="white" stroke-width="1.5" stroke-miterlimit="10" stroke-linecap="round" stroke-linejoin="round"/>
<path d="M28.576 19.063C26.359 19.331 25.168 19.81 24.06 20.475C21.517 22.002 19.124 24.848 18.697 28.658C17.832 36.355 23.476 41.643 29.987 41.643C35.173 41.643 41.482 37.938 41.418 30.212C41.359 23.179 35.746 18.203 28.576 19.063ZM38.314 32.469C37.369 36.362 33.046 39.307 28.576 38.679C24.303 38.08 19.711 32.767 22.224 26.826C23.152 24.639 25.24 22.186 29.562 21.887C34.873 21.519 39.819 26.264 38.314 32.469Z" stroke="white" stroke-width="1.5" stroke-miterlimit="10" stroke-linecap="round" stroke-linejoin="round"/>
<path d="M11.197 15.681V1.536V15.681ZM6.35201 15.681V2.694C5.59001 3.164 4.91301 3.695 4.36401 4.246C1.17401 7.436 0.916014 12.926 1.11901 19.913H19.042C19.77 19.74 20.643 18.846 21.301 18.359C23.716 16.582 26.821 15.61 29.975 15.576H30.064C33.217 15.61 36.323 16.582 38.737 18.359C39.395 18.845 40.267 19.74 40.994 19.913H58.919C58.998 12.855 58.865 7.436 55.672 4.246C54.115 2.69 51.568 1.263 48.756 1H30.043H29.992H16.584V15.681H6.35201ZM53.211 13.767C53.211 14.589 52.544 15.257 51.724 15.257H45.524C44.704 15.257 44.037 14.589 44.037 13.767V7.567C44.037 6.746 44.704 6.078 45.524 6.078H51.724C52.544 6.078 53.211 6.746 53.211 7.567V13.767Z" stroke="white" stroke-width="1.5" stroke-miterlimit="10" stroke-linecap="round" stroke-linejoin="round"/>
</svg>
