<svg width="60" height="60" viewBox="0 0 60 60" fill="none" xmlns="http://www.w3.org/2000/svg">
<path d="M22.316 12.234C22.316 13.695 22.316 20.219 22.316 20.219H16.466V29.985H22.316V59H34.337V29.985H42.4C42.4 29.985 43.154 25.301 43.521 20.182C42.47 20.182 34.38 20.182 34.38 20.182C34.38 20.182 34.38 14.5 34.38 13.505C34.38 12.508 35.689 11.165 36.985 11.165C38.277 11.165 41.006 11.165 43.532 11.165C43.532 9.83499 43.532 5.24099 43.532 0.998993C40.16 0.998993 36.322 0.998993 34.632 0.998993C22.02 0.999993 22.316 10.774 22.316 12.234Z" stroke="white" stroke-width="1.5" stroke-miterlimit="10" stroke-linecap="round" stroke-linejoin="round"/>
</svg>
