<svg width="60" height="60" viewBox="0 0 60 60" fill="none" xmlns="http://www.w3.org/2000/svg">
<path d="M30.001 1C13.987 1 1 13.983 1 30C1 41.875 8.142 52.079 18.358 56.565C18.277 54.538 18.346 52.104 18.862 49.907C19.424 47.548 22.597 34.099 22.597 34.099C22.597 34.099 21.668 32.249 21.668 29.512C21.668 25.217 24.161 22.008 27.266 22.008C29.9 22.008 31.176 23.987 31.176 26.357C31.176 29.01 29.483 32.977 28.614 36.649C27.886 39.725 30.155 42.235 33.187 42.235C38.683 42.235 42.384 35.18 42.384 26.817C42.384 20.463 38.107 15.708 30.316 15.708C21.522 15.708 16.041 22.265 16.041 29.59C16.041 32.12 16.786 33.901 17.953 35.283C18.49 35.916 18.564 36.169 18.367 36.897C18.232 37.431 17.915 38.715 17.781 39.223C17.585 39.961 16.992 40.221 16.327 39.95C12.275 38.298 10.389 33.861 10.389 28.872C10.389 20.633 17.334 10.754 31.116 10.754C42.189 10.754 49.476 18.766 49.476 27.368C49.476 38.743 43.149 47.241 33.827 47.241C30.693 47.241 27.749 45.548 26.743 43.629C26.743 43.629 25.058 50.311 24.703 51.602C24.089 53.832 22.883 56.074 21.783 57.813C24.389 58.584 27.145 59 30.001 59C46.016 59 59 46.018 59 30C59 13.983 46.016 1 30.001 1Z" stroke="white" stroke-width="1.5" stroke-miterlimit="10" stroke-linecap="round" stroke-linejoin="round"/>
</svg>
