<svg width="60" height="60" viewBox="0 0 60 60" fill="none" xmlns="http://www.w3.org/2000/svg">
<path d="M20.603 20.994C20.434 21.02 20.286 21.061 20.118 21.092L17.327 15.389L9.052 16.336L12.425 23.273C-5.023 30.522 2.707 47.611 2.707 47.611L29.331 39.903L22.016 24.965C35.146 21.169 46.108 28.929 46.108 28.929L37.072 31.385L34.469 26.523C32.021 26.067 29.234 25.928 26.265 26.425L32.417 39.002L59 31.301C59 31.301 49.359 16.07 20.603 20.994ZM9.91 38.758C9.91 38.758 7.345 33.061 14.81 28.182L18.779 36.353L9.91 38.758Z" stroke="white" stroke-width="1.5" stroke-miterlimit="10" stroke-linecap="round" stroke-linejoin="round"/>
</svg>
