<svg width="494" height="176" viewBox="0 0 494 176" fill="none" xmlns="http://www.w3.org/2000/svg">
<path d="M220.916 38.336C233.012 38.336 242.468 41.936 249.284 49.136C256.196 56.336 259.652 66.608 259.652 79.952V140H248.996V80.24C248.996 69.584 246.356 61.52 241.076 56.048C235.796 50.576 228.404 47.84 218.9 47.84C208.916 47.84 201.14 50.768 195.572 56.624C190.004 62.384 187.22 71.072 187.22 82.688V140H176.564V39.2H186.788V56.192C193.22 44.288 204.596 38.336 220.916 38.336ZM332.78 38.336C345.836 38.336 356.108 42.176 363.596 49.856C371.18 57.44 374.972 68.432 374.972 82.832V140H364.46V110.336H301.1V140H290.732V82.832C290.732 68.432 294.476 57.44 301.964 49.856C309.548 42.176 319.82 38.336 332.78 38.336ZM364.46 101.12V81.824C364.46 70.592 361.676 62.144 356.108 56.48C350.54 50.72 342.764 47.84 332.78 47.84C322.796 47.84 315.02 50.72 309.452 56.48C303.884 62.144 301.1 70.592 301.1 81.824V101.12H364.46ZM444.636 39.2C457.5 39.2 467.58 42.272 474.876 48.416C482.172 54.56 485.82 63.008 485.82 73.76C485.82 84.512 482.172 92.96 474.876 99.104C467.58 105.152 457.5 108.176 444.636 108.176H417.564V140H406.908V39.2H444.636ZM444.348 98.816C454.332 98.816 461.964 96.656 467.244 92.336C472.524 87.92 475.164 81.728 475.164 73.76C475.164 65.6 472.524 59.36 467.244 55.04C461.964 50.624 454.332 48.416 444.348 48.416H417.564V98.816H444.348Z" fill="white"/>
<path d="M94.7283 62.3068C82.4716 50.0501 62.5284 50.0501 50.2717 62.3068C38.0149 74.5636 38.0149 94.5067 50.2717 106.763C56.3999 112.892 64.4499 115.956 72.5 115.956C80.55 115.956 88.6001 112.892 94.7283 106.763C106.985 94.5067 106.985 74.5636 94.7283 62.3068ZM88.7207 100.756C79.7766 109.7 65.2234 109.7 56.2793 100.756C47.3351 91.8118 47.3351 77.2585 56.2793 68.3144C60.7513 63.8424 66.6258 61.6062 72.5 61.6062C77.0259 61.6062 81.5489 62.9392 85.4336 65.594L80.7106 70.3169L86.7182 76.3245L91.4412 71.6016C97.5414 80.5281 96.6382 92.8384 88.7207 100.756Z" fill="white"/>
<path d="M0 50.5508H20.6738C20.6738 40.9071 26.6488 32.0044 37.4981 25.4825C47.6707 19.3679 61.107 16 75.332 16C91.6672 16 107.106 20.5689 117.378 28.3287L122.91 22.7969V39.7891H105.918L111.304 34.4031C102.496 28.1554 89.3721 24.4961 75.332 24.4961C62.627 24.4961 50.7452 27.4326 41.8753 32.7645C33.6822 37.6894 29.1699 44.0062 29.1699 50.5508H40.4389L51.767 36.3906H91.5338L102.862 50.5508H145V127.016H127.147C126.918 136.441 120.97 145.124 110.334 151.518C100.161 157.632 86.725 161 72.5 161C56.1648 161 40.7263 156.431 30.4537 148.671L24.9219 154.203V137.211H41.9141L36.5281 142.597C45.3357 148.845 58.4599 152.504 72.5 152.504C85.2051 152.504 97.0868 149.567 105.957 144.236C113.913 139.453 118.398 133.357 118.65 127.016H0V50.5508ZM8.49609 118.52H136.504V59.0469H98.7787L87.4506 44.8867H55.8502L44.5221 59.0469H8.49609V118.52Z" fill="white"/>
<path d="M72.5 68.959C63.9113 68.959 56.9238 75.9465 56.9238 84.5352C56.9238 93.1239 63.9113 100.111 72.5 100.111C81.0887 100.111 88.0762 93.1239 88.0762 84.5352C88.0762 75.9465 81.0887 68.959 72.5 68.959ZM72.5 91.6152C68.596 91.6152 65.4199 88.4391 65.4199 84.5352C65.4199 80.6312 68.596 77.4551 72.5 77.4551C76.404 77.4551 79.5801 80.6312 79.5801 84.5352C79.5801 88.4391 76.404 91.6152 72.5 91.6152Z" fill="white"/>
</svg>
